<svg xmlns="http://www.w3.org/2000/svg" viewBox="0 0 48 48">
  <path fill="#24292F" d="M24 2C11.8 2 2 11.8 2 24c0 9.7 6.3 18 15 20.9 1.1.2 1.5-.5 1.5-1v-3.7c-6.1 1.3-7.4-2.9-7.4-2.9-1-2.5-2.4-3.2-2.4-3.2-2-1.3.1-1.3.1-1.3 2.2.2 3.3 2.2 3.3 2.2 1.9 3.3 5.1 2.3 6.3 1.8.2-1.4.7-2.3 1.4-2.9-4.9-.5-10-2.4-10-10.8 0-2.4.8-4.3 2.2-5.9-.2-.6-1-2.8.2-5.8 0 0 1.8-.6 5.9 2.2 1.7-.5 3.6-.7 5.4-.7s3.6.2 5.4.7c4.1-2.8 5.9-2.2 5.9-2.2 1.2 3 .5 5.2.2 5.8 1.4 1.5 2.2 3.5 2.2 5.9 0 8.4-5.1 10.3-10 10.8.8.7 1.5 2 1.5 4.1v6c0 .6.4 1.2 1.5 1C39.7 42 46 33.7 46 24 46 11.8 36.2 2 24 2z"/>
</svg>
