<svg xmlns="http://www.w3.org/2000/svg" viewBox="0 0 48 48">
  <path fill="#F7DF1E" d="M0 0h48v48H0z"/>
  <path d="M13 36.4c.8 1.4 1.5 2.6 3.3 2.6 1.7 0 2.7-.7 2.7-3.2V21h4v15c0 5.3-3.1 7.7-7.6 7.7-4.1 0-6.4-2.1-7.6-4.7l4.2-2.6zm16.2-.4c1 1.7 2.3 3 4.6 3 1.9 0 3.2-1 3.2-2.3 0-1.6-1.3-2.2-3.4-3.1l-1.2-.5c-3.4-1.4-5.6-3.2-5.6-7 0-3.5 2.6-6.1 6.8-6.1 2.9 0 5 1 6.5 3.7l-3.6 2.3c-.8-1.4-1.6-2-2.9-2-1.3 0-2.2.8-2.2 2 0 1.4.8 2 2.8 2.8l1.2.5c4 1.7 6.2 3.5 6.2 7.4 0 4.2-3.3 6.6-7.8 6.6-4.4 0-7.2-2.1-8.6-4.8l4-2.5z" fill="#323330"/>
</svg>
